<svg width="54" height="54" viewBox="0 0 54 54" fill="none" xmlns="http://www.w3.org/2000/svg">
<path d="M0 27C0 15.8672 0 10.3008 2.78872 6.37049C3.77274 4.98365 4.98365 3.77274 6.37049 2.78872C10.3008 0 15.8672 0 27 0C38.1328 0 43.6992 0 47.6295 2.78872C49.0164 3.77274 50.2273 4.98365 51.2113 6.37049C54 10.3008 54 15.8672 54 27C54 38.1328 54 43.6992 51.2113 47.6295C50.2273 49.0164 49.0164 50.2273 47.6295 51.2113C43.6992 54 38.1328 54 27 54C15.8672 54 10.3008 54 6.37049 51.2113C4.98365 50.2273 3.77274 49.0164 2.78872 47.6295C0 43.6992 0 38.1328 0 27Z" fill="#151515"/>
<path d="M37.0623 12.9823C37.0623 10.6649 38.0977 9.67871 40.5631 9.67871C42.9792 9.67871 44.064 10.7142 44.064 12.9823C44.064 15.2998 42.9792 16.3353 40.5138 16.3353C38.0978 16.3353 37.0623 15.2998 37.0623 12.9823Z" fill="#FFD842"/>
<path fill-rule="evenodd" clip-rule="evenodd" d="M35.6949 10.662C35.4497 11.3189 35.3332 12.1149 35.3332 13.0607C35.3332 16.151 36.5769 17.7014 39.4378 17.9786C39.5743 18.9937 39.6412 20.096 39.6412 21.2887C39.6412 30.2886 35.8335 34.1457 27.0314 34.1457C18.1799 34.1457 14.4217 30.2886 14.4217 21.2887C14.4217 12.2887 18.1799 8.43164 27.0314 8.43164C30.8069 8.43164 33.6635 9.14128 35.6949 10.662ZM27.0314 12.7832C22.037 12.7832 20.0095 15.2558 20.0095 21.2887C20.0095 27.2721 22.0864 29.7941 27.0314 29.7941C31.9764 29.7941 34.0039 27.2721 34.0039 21.2887C34.0039 15.3052 31.9764 12.7832 27.0314 12.7832Z" fill="url(#paint0_linear)"/>
<path d="M19.6046 43.4957C18.0801 41.9954 17.3138 39.5927 17.3055 36.2874H22.7066C22.7129 38.2059 23.0534 39.599 23.7283 40.4667C24.4339 41.3425 25.553 41.7805 27.0858 41.7805C28.6185 41.7805 29.7255 41.3425 30.4067 40.4667C31.1057 39.599 31.4584 38.2059 31.4649 36.2874H36.866C36.8576 39.5927 36.0791 41.9954 34.5305 43.4957C33.5037 44.4899 32.0511 45.1511 30.1727 45.4792C29.6685 44.5148 28.6526 44.0612 27.0534 44.0612C25.4169 44.0612 24.4105 44.4957 23.9187 45.4657C22.0716 45.1331 20.6335 44.4764 19.6046 43.4957Z" fill="url(#paint1_linear)"/>
<defs>
<linearGradient id="paint0_linear" x1="27.0314" y1="8.43164" x2="27.0314" y2="45.4792" gradientUnits="userSpaceOnUse">
<stop stop-color="#257CFF"/>
<stop offset="1" stop-color="#C5EAFF"/>
</linearGradient>
<linearGradient id="paint1_linear" x1="27.0314" y1="8.43164" x2="27.0314" y2="45.4792" gradientUnits="userSpaceOnUse">
<stop stop-color="#257CFF"/>
<stop offset="1" stop-color="#C5EAFF"/>
</linearGradient>
</defs>
</svg>
