<svg width="10" height="10" viewBox="0 0 10 10" fill="none" xmlns="http://www.w3.org/2000/svg">
<path d="M8.84019 4.04019H5.96019V1.1602C5.96019 0.630035 5.53035 0.200195 5.00019 0.200195C4.47003 0.200195 4.04019 0.630035 4.04019 1.1602V4.04019H1.1602C0.630035 4.04019 0.200195 4.47003 0.200195 5.00019C0.200195 5.53035 0.630035 5.96019 1.1602 5.96019H4.04019V8.84019C4.04019 9.37035 4.47003 9.80019 5.00019 9.80019C5.53035 9.80019 5.96019 9.37035 5.96019 8.84019V5.96019H8.84019C9.37035 5.96019 9.80019 5.53035 9.80019 5.00019C9.80019 4.47003 9.37035 4.04019 8.84019 4.04019Z" fill="#151515"/>
</svg>
